<svg width="32" height="32" viewBox="0 0 32 32" fill="none" xmlns="http://www.w3.org/2000/svg">
<rect width="32" height="32" rx="7" fill="white"/>
<path d="M16.4912 10.6391C14.4241 10.6391 12.4043 11.4369 10.8961 12.8505C9.24121 14.4024 8.19372 16.6937 7.59238 18.8493C7.19957 20.2605 7.00195 21.7239 7.00195 23.1872C7.00195 23.6297 7.02014 24.0686 7.0553 24.5026C7.09773 25.0312 7.61178 25.3962 8.1234 25.2579C8.56955 25.1379 9.03874 25.0737 9.52369 25.0737C10.5178 25.0737 11.4502 25.344 12.2479 25.8168C12.2673 25.8278 12.2867 25.8399 12.3061 25.8508C13.6045 26.6255 15.1358 27.0498 16.7688 26.9953C21.0291 26.8534 24.5098 23.3872 24.6662 19.1282C24.8384 14.4678 21.1116 10.6367 16.49 10.6367L16.4912 10.6391ZM16.4912 22.5592C14.4265 22.5592 12.7522 20.8849 12.7522 18.8202C12.7522 16.7556 14.4265 15.0813 16.4912 15.0813C18.5559 15.0813 20.2302 16.7556 20.2302 18.8202C20.2302 20.8849 18.5559 22.5592 16.4912 22.5592Z" fill="#00ADFF"/>
<path d="M13.1261 8.06124C13.1261 9.13904 12.5612 10.1393 11.6337 10.6897C11.0518 11.0352 10.505 11.4426 10.0115 11.9069C8.91434 12.935 8.09599 14.1959 7.4898 15.4458C7.37099 15.6919 7 15.6046 7 15.3318V8.06245C7 6.37119 8.37119 5 10.0625 5C11.7537 5 13.1249 6.37119 13.1249 8.06245L13.1261 8.06124Z" fill="#0077FF"/>
</svg>
