<svg width="13" height="15" viewBox="0 0 13 15" fill="none" xmlns="http://www.w3.org/2000/svg">
<path d="M2.50245 2.29756L6.48294 0L10.4634 2.29756L9 3.14634L6.48294 1.69756L3.96587 3.14634L2.50245 2.29756ZM10.4634 5.19512L9 4.34634L6.48294 5.79512L3.96587 4.34634L2.50245 5.19512V6.89269L5.01952 8.34144V11.239L6.48294 12.0878L7.94638 11.239V8.34144L10.4634 6.89269V5.19512ZM10.4634 9.79025V8.09269L9 8.94144V10.639L10.4634 9.79025ZM11.5024 10.3902L8.98538 11.839V13.5366L12.9659 11.239V6.64388L11.5024 7.49269V10.3902ZM10.0391 3.74634L11.5024 4.59512V6.29269L12.9659 5.4439V3.74634L11.5024 2.89756L10.0391 3.74634ZM5.01952 12.4537V14.1513L6.48294 15L7.94638 14.1513V12.4537L6.48294 13.3024L5.01952 12.4537ZM2.50245 9.79025L3.96587 10.639V8.94144L2.50245 8.09269V9.79025ZM5.01952 3.74634L6.48294 4.59512L7.94638 3.74634L6.48294 2.89756L5.01952 3.74634ZM1.46341 4.59512L2.92683 3.74634L1.46341 2.89756L0 3.74634V5.4439L1.46341 6.29269V4.59512ZM1.46341 7.49269L0 6.64388V11.239L3.98048 13.5366V11.839L1.46341 10.3902V7.49269Z" fill="gray"/>
</svg>
