<svg width="14" height="14" viewBox="0 0 14 14" fill="none" xmlns="http://www.w3.org/2000/svg">
<path d="M12.3505 4.94238H9.05591V8.23692H12.3505V4.94238Z" fill="gray"/>
<path d="M5.76547 9.47123C5.76547 9.71583 5.69295 9.95488 5.55704 10.1583C5.42119 10.3616 5.22806 10.5201 5.0021 10.6137C4.77609 10.7073 4.52746 10.7318 4.28757 10.6841C4.04773 10.6364 3.82738 10.5186 3.6544 10.3456C3.48148 10.1727 3.36371 9.95236 3.316 9.71247C3.26829 9.47257 3.29276 9.22394 3.38634 8.99799C3.47996 8.77204 3.63844 8.5789 3.84182 8.44299C4.04515 8.30714 4.28426 8.23462 4.52886 8.23462H5.76547V4.94238H4.52886C3.63312 4.94238 2.75753 5.20798 2.01276 5.70564C1.26798 6.20329 0.687518 6.91055 0.344743 7.73809C0.00196199 8.56563 -0.0877245 9.47627 0.0870231 10.3548C0.261771 11.2333 0.693102 12.0403 1.32645 12.6736C1.95984 13.307 2.76683 13.7383 3.64533 13.9131C4.52382 14.0878 5.43441 13.9981 6.26195 13.6553C7.08949 13.3125 7.7968 12.7321 8.29445 11.9873C8.79205 11.2426 9.05771 10.3669 9.05771 9.47123V8.23462H5.76547V9.47123Z" fill="gray"/>
<path d="M10.293 3.29456H13.9982V0H10.293C9.09229 0.00123196 7.94109 0.478778 7.09199 1.32785C6.24294 2.1769 5.76539 3.32811 5.76416 4.52882V4.9418H9.0564V4.52882C9.05701 4.20128 9.1876 3.88736 9.41943 3.65592C9.65127 3.42453 9.96547 3.29456 10.293 3.29456Z" fill="gray"/>
<path d="M5.76416 8.23462H9.0564V4.94238H5.76416V8.23462Z" fill="gray" fill-opacity="0.5"/>
</svg>
