<svg width="32" height="29" viewBox="0 0 32 29" fill="none" xmlns="http://www.w3.org/2000/svg">
<path fill-rule="evenodd" clip-rule="evenodd" d="M9.15625 26.2605L13.3487 27.3725V25.9183L13.691 25.5762H16.0867V27.2869V28.4845H13.5199L10.3541 27.1159L9.15625 26.2605Z" fill="#CDBDB2"/>
<path fill-rule="evenodd" clip-rule="evenodd" d="M22.8457 26.2605L18.7388 27.3725V25.9183L18.3965 25.5762H16.0008V27.2869V28.4845H18.5677L21.7334 27.1159L22.8457 26.2605Z" fill="#CDBDB2"/>
<path fill-rule="evenodd" clip-rule="evenodd" d="M13.6894 23.0957L13.3472 25.9184L13.775 25.5763H18.2241L18.7375 25.9184L18.3953 23.0957L17.7108 22.668L14.2883 22.7535L13.6894 23.0957Z" fill="#393939"/>
<path fill-rule="evenodd" clip-rule="evenodd" d="M11.3794 4.02051L13.4329 8.81063L14.374 22.7533H17.7109L18.7376 8.81063L20.62 4.02051H11.3794Z" fill="#F89C35"/>
<path fill-rule="evenodd" clip-rule="evenodd" d="M2.39571 14.5417L0 21.4703L5.98927 21.1281H9.83951V18.1343L9.66839 11.9756L8.81278 12.6599L2.39571 14.5417Z" fill="#F89D35"/>
<path fill-rule="evenodd" clip-rule="evenodd" d="M6.93115 15.3115L13.9472 15.4826L13.1771 19.0752L9.84023 18.2198L6.93115 15.3115Z" fill="#D87C30"/>
<path fill-rule="evenodd" clip-rule="evenodd" d="M6.93115 15.3965L9.84023 18.1337V20.8709L6.93115 15.3965Z" fill="#EA8D3A"/>
<path fill-rule="evenodd" clip-rule="evenodd" d="M9.83789 18.2197L13.2603 19.0751L14.3726 22.7532L13.6026 23.1809L9.83789 20.9569V18.2197Z" fill="#F89D35"/>
<path fill-rule="evenodd" clip-rule="evenodd" d="M9.84074 20.9561L9.15625 26.2594L13.691 23.0945L9.84074 20.9561Z" fill="#EB8F35"/>
<path fill-rule="evenodd" clip-rule="evenodd" d="M13.9469 15.4824L14.3747 22.7531L13.0913 19.0322L13.9469 15.4824Z" fill="#EA8E3A"/>
<path fill-rule="evenodd" clip-rule="evenodd" d="M5.90283 21.0416L9.83864 20.9561L9.15415 26.2594L5.90283 21.0416Z" fill="#D87C30"/>
<path fill-rule="evenodd" clip-rule="evenodd" d="M1.88234 28.5693L9.15502 26.2598L5.90371 21.042L0 21.4697L1.88234 28.5693Z" fill="#EB8F35"/>
<path fill-rule="evenodd" clip-rule="evenodd" d="M13.4338 8.81055L9.75466 11.8899L6.93115 15.3114L13.9472 15.568L13.4338 8.81055Z" fill="#E8821E"/>
<path fill-rule="evenodd" clip-rule="evenodd" d="M9.15625 26.2606L13.691 23.0957L13.3487 25.8329V27.3726L10.2685 26.7738L9.15625 26.2606Z" fill="#DFCEC3"/>
<path fill-rule="evenodd" clip-rule="evenodd" d="M22.8457 26.2606L18.3965 23.0957L18.7388 25.8329V27.3726L21.819 26.7738L22.8457 26.2606Z" fill="#DFCEC3"/>
<path fill-rule="evenodd" clip-rule="evenodd" d="M12.0632 17.0225L13.0044 18.9898L9.66752 18.1345L12.0632 17.0225Z" fill="#393939"/>
<path fill-rule="evenodd" clip-rule="evenodd" d="M1.79736 0L13.4337 8.81041L11.4658 4.02028L1.79736 0Z" fill="#E88F35"/>
<path fill-rule="evenodd" clip-rule="evenodd" d="M1.79645 0L0.256348 4.70459L1.11196 9.83686L0.513031 10.179L1.36864 10.9489L0.684153 11.5476L1.62532 12.403L1.0264 12.9162L2.39537 14.627L8.81245 12.6596C11.9497 10.1505 13.4898 8.86743 13.4327 8.81041C13.3757 8.75338 9.49693 5.81658 1.79645 0Z" fill="#8E5A30"/>
<path fill-rule="evenodd" clip-rule="evenodd" d="M29.6043 14.5417L32 21.4703L26.0107 21.1281H22.1605V18.1343L22.3316 11.9756L23.1872 12.6599L29.6043 14.5417Z" fill="#F89D35"/>
<path fill-rule="evenodd" clip-rule="evenodd" d="M25.0688 15.3115L18.0528 15.4826L18.8229 19.0752L22.1598 18.2198L25.0688 15.3115Z" fill="#D87C30"/>
<path fill-rule="evenodd" clip-rule="evenodd" d="M25.0688 15.3965L22.1598 18.1337V20.8709L25.0688 15.3965Z" fill="#EA8D3A"/>
<path fill-rule="evenodd" clip-rule="evenodd" d="M22.1621 18.2197L18.7397 19.0751L17.6274 22.7532L18.3974 23.1809L22.1621 20.9569V18.2197Z" fill="#F89D35"/>
<path fill-rule="evenodd" clip-rule="evenodd" d="M22.1593 20.957L22.8438 26.2604L18.3946 23.181L22.1593 20.957Z" fill="#EB8F35"/>
<path fill-rule="evenodd" clip-rule="evenodd" d="M18.0531 15.4824L17.6253 22.7531L18.9087 19.0322L18.0531 15.4824Z" fill="#EA8E3A"/>
<path fill-rule="evenodd" clip-rule="evenodd" d="M26.0977 21.0426L22.1619 20.957L22.8463 26.2604L26.0977 21.0426Z" fill="#D87C30"/>
<path fill-rule="evenodd" clip-rule="evenodd" d="M30.1177 28.5703L22.845 26.2608L26.0963 21.043L32 21.4707L30.1177 28.5703Z" fill="#EB8F35"/>
<path fill-rule="evenodd" clip-rule="evenodd" d="M18.5662 8.81055L22.2453 11.8899L25.0688 15.3114L18.0528 15.568L18.5662 8.81055Z" fill="#E8821E"/>
<path fill-rule="evenodd" clip-rule="evenodd" d="M19.9373 17.0225L18.9961 18.9898L22.333 18.1345L19.9373 17.0225Z" fill="#393939"/>
<path fill-rule="evenodd" clip-rule="evenodd" d="M30.2031 0L18.5668 8.81041L20.5347 4.02028L30.2031 0Z" fill="#E88F35"/>
<path fill-rule="evenodd" clip-rule="evenodd" d="M30.2045 0L31.7446 4.70459L30.889 9.83686L31.4879 10.179L30.6323 10.9489L31.3168 11.5476L30.3757 12.403L30.9746 12.9162L29.6056 14.627L23.1885 12.6596C20.0513 10.1505 18.5112 8.86743 18.5682 8.81041C18.6253 8.75338 22.504 5.81658 30.2045 0Z" fill="#8E5A30"/>
</svg>
